<?xml version="1.0" encoding="utf-8"?>
<svg version="1.1" xmlns:xlink="http://www.w3.org/1999/xlink" width="23px" height="23px" xmlns="http://www.w3.org/2000/svg">
  <g transform="matrix(1 0 0 1 -115 -285 )">
    <path d="M 18.6711647727273 10.6015625  C 18.7691761363636 10.6995738636364  18.8181818181818 10.8248106060606  18.8181818181818 10.9772727272727  L 18.8181818181818 12.0227272727273  C 18.8181818181818 12.1751893939394  18.7691761363636 12.3004261363636  18.6711647727273 12.3984375  C 18.5731534090909 12.4964488636364  18.4479166666667 12.5454545454545  18.2954545454545 12.5454545454545  L 12.5454545454545 12.5454545454545  L 12.5454545454545 18.2954545454545  C 12.5454545454545 18.4479166666667  12.4964488636364 18.5731534090909  12.3984375 18.6711647727273  C 12.3004261363636 18.7691761363636  12.1751893939394 18.8181818181818  12.0227272727273 18.8181818181818  L 10.9772727272727 18.8181818181818  C 10.8248106060606 18.8181818181818  10.6995738636364 18.7691761363636  10.6015625 18.6711647727273  C 10.5035511363636 18.5731534090909  10.4545454545455 18.4479166666667  10.4545454545455 18.2954545454545  L 10.4545454545455 12.5454545454545  L 4.70454545454546 12.5454545454545  C 4.55208333333333 12.5454545454545  4.42684659090909 12.4964488636364  4.32883522727273 12.3984375  C 4.23082386363636 12.3004261363636  4.18181818181818 12.1751893939394  4.18181818181818 12.0227272727273  L 4.18181818181818 10.9772727272727  C 4.18181818181818 10.8248106060606  4.23082386363636 10.6995738636364  4.32883522727273 10.6015625  C 4.42684659090909 10.5035511363636  4.55208333333333 10.4545454545455  4.70454545454546 10.4545454545455  L 10.4545454545455 10.4545454545455  L 10.4545454545455 4.70454545454546  C 10.4545454545455 4.55208333333333  10.5035511363636 4.42684659090909  10.6015625 4.32883522727273  C 10.6995738636364 4.23082386363636  10.8248106060606 4.18181818181818  10.9772727272727 4.18181818181818  L 12.0227272727273 4.18181818181818  C 12.1751893939394 4.18181818181818  12.3004261363636 4.23082386363636  12.3984375 4.32883522727273  C 12.4964488636364 4.42684659090909  12.5454545454545 4.55208333333333  12.5454545454545 4.70454545454546  L 12.5454545454545 10.4545454545455  L 18.2954545454545 10.4545454545455  C 18.4479166666667 10.4545454545455  18.5731534090909 10.5035511363636  18.6711647727273 10.6015625  Z M 20.1413352272727 20.1413352272727  C 20.6531723484849 19.6294981060606  20.9090909090909 19.0142045454545  21 18.2954545454545  L 21 4.70454545454546  C 20.9090909090909 3.98579545454546  20.6531723484849 3.37050189393939  20.1413352272727 2.85866477272727  C 19.6294981060606 2.34682765151515  19.0142045454545 2.09090909090909  18.2954545454545 2  L 4.70454545454546 2  C 3.98579545454546 2.09090909090909  3.37050189393939 2.34682765151515  2.85866477272727 2.85866477272727  C 2.34682765151515 3.37050189393939  2.09090909090909 3.98579545454546  2 4.70454545454546  L 2 18.2954545454545  C 2.09090909090909 19.0142045454545  2.34682765151515 19.6294981060606  2.85866477272727 20.1413352272727  C 3.37050189393939 20.6531723484848  3.98579545454546 20.9090909090909  4.70454545454546 21  L 18.2954545454545 21  C 19.0142045454545 20.9090909090909  19.6294981060606 20.6531723484848  20.1413352272727 20.1413352272727  Z M 21.6196732954545 1.38032670454546  C 22.5398910984849 2.30054450757576  23 3.40861742424242  23 4.70454545454546  L 23 18.2954545454545  C 23 19.5913825757576  22.5398910984849 20.6994554924242  21.6196732954545 21.6196732954545  C 20.6994554924242 22.5398910984848  19.5913825757576 23  18.2954545454545 23  L 4.70454545454546 23  C 3.40861742424242 23  2.30054450757576 22.5398910984848  1.38032670454545 21.6196732954545  C 0.460108901515151 20.6994554924242  0 19.5913825757576  0 18.2954545454545  L 0 4.70454545454546  C 0 3.40861742424242  0.460108901515151 2.30054450757576  1.38032670454545 1.38032670454546  C 2.30054450757576 0.460108901515149  3.40861742424242 0  4.70454545454546 0  L 18.2954545454545 0  C 19.5913825757576 0  20.6994554924242 0.460108901515149  21.6196732954545 1.38032670454546  Z " fill-rule="nonzero" fill="#000000" stroke="none" transform="matrix(1 0 0 1 115 285 )" />
  </g>
</svg>